<svg width="32" height="31" viewBox="0 0 32 31" fill="none" xmlns="http://www.w3.org/2000/svg">
<rect x="1.2741" y="0.342463" width="29.4518" height="29.4518" rx="14.7259" fill="#01C3FD"/>
<rect x="1.2741" y="0.342463" width="29.4518" height="29.4518" rx="14.7259" stroke="black" stroke-width="0.684925"/>
<path d="M9.83398 14.7246C9.83398 11.6575 9.83398 10.1232 10.7867 9.1705C11.7394 8.21777 13.273 8.21777 16.3408 8.21777C19.4079 8.21777 20.9421 8.21777 21.8948 9.1705C22.8476 10.1232 22.8476 11.6568 22.8476 14.7246C22.8476 17.7917 22.8476 19.3259 21.8948 20.2786C20.9421 21.2314 19.4086 21.2314 16.3408 21.2314C13.2737 21.2314 11.7394 21.2314 10.7867 20.2786C9.83398 19.3259 9.83398 17.7923 9.83398 14.7246Z" stroke="black" stroke-width="1.02739" stroke-linecap="round" stroke-linejoin="round"/>
<path d="M20.1145 10.957H20.1076M19.4241 14.7241C19.4241 15.5416 19.0994 16.3255 18.5213 16.9035C17.9433 17.4816 17.1594 17.8063 16.3419 17.8063C15.5245 17.8063 14.7405 17.4816 14.1625 16.9035C13.5845 16.3255 13.2598 15.5416 13.2598 14.7241C13.2598 13.9067 13.5845 13.1227 14.1625 12.5447C14.7405 11.9667 15.5245 11.642 16.3419 11.642C17.1594 11.642 17.9433 11.9667 18.5213 12.5447C19.0994 13.1227 19.4241 13.9067 19.4241 14.7241Z" stroke="black" stroke-width="1.02739" stroke-linecap="round" stroke-linejoin="round"/>
</svg>
