<svg width="260" height="24" viewBox="0 0 260 24" fill="none" xmlns="http://www.w3.org/2000/svg">
<rect x="1.36719" y="0.5" width="23" height="23" rx="11.5" stroke="white"/>
<path d="M23.5385 14.6612C22.0691 20.5542 16.0995 24.14 10.2051 22.6708C4.31344 21.2015 0.726872 15.2327 2.19658 9.34027C3.66538 3.44667 9.63443 -0.140033 15.527 1.32918C21.421 2.7984 25.0073 8.76787 23.5379 14.6612H23.5385Z" fill="#F7931A"/>
<path d="M17.7179 10.4332C17.9366 8.9697 16.8221 8.18281 15.2981 7.65792L15.7925 5.67516L14.5852 5.37433L14.1038 7.3048C13.7868 7.22564 13.4609 7.15125 13.137 7.07716L13.6216 5.13384L12.4151 4.83301L11.9203 6.81517C11.6577 6.75542 11.3999 6.69627 11.1495 6.63413L11.151 6.62785L9.48647 6.2123L9.16528 7.50138C9.16528 7.50138 10.0607 7.70661 10.0419 7.71916C10.5307 7.84105 10.6194 8.16459 10.6042 8.42121L10.0395 10.6887L9.24983 13.8529C9.19008 14.0014 9.0383 14.2243 8.69679 14.1397C8.70874 14.1574 7.81957 13.9208 7.81957 13.9208L7.22021 15.3027L8.79121 15.6944C9.08341 15.7676 9.36965 15.8444 9.6514 15.9164L9.15184 17.9221L10.3574 18.223L10.8525 16.239C11.1815 16.3283 11.5011 16.4108 11.814 16.4885L11.321 18.4631L12.5281 18.764L13.0276 16.7624C15.0859 17.152 16.6339 16.9948 17.2847 15.1337C17.8096 13.6349 17.259 12.7703 16.1759 12.2063C16.9647 12.0237 17.5586 11.5051 17.717 10.4335L17.7179 10.4332ZM14.9598 14.3002C14.5864 15.799 12.0632 14.9891 11.2445 14.7856L11.9072 12.1289C12.7256 12.3332 15.3488 12.7374 14.9601 14.3005L14.9598 14.3002ZM15.3327 10.4117C14.9924 11.7752 12.8917 11.0824 12.2102 10.9127L12.811 8.50306C13.4928 8.67245 15.6877 8.98941 15.3327 10.4117Z" fill="white"/>
<path d="M82.7526 13.7372C83.7234 7.6859 79.6048 1.99335 73.5534 1.02258C67.5021 0.0518197 61.8095 4.17045 60.8388 10.2218C59.868 16.2731 63.9866 21.9657 70.038 22.9364C76.0893 23.9072 81.7819 19.7886 82.7526 13.7372Z" fill="#23292F"/>
<path d="M77.2826 5.55078H79.5275L74.8556 10.1771C73.1628 11.8518 70.4204 11.8518 68.7276 10.1771L64.0527 5.55078H66.3007L69.8502 9.06385C70.9273 10.1256 72.6532 10.1256 73.7303 9.06385L77.2826 5.55078Z" fill="white"/>
<path d="M66.2704 18.4137H64.0225L68.7247 13.7599C70.4175 12.0852 73.16 12.0852 74.8528 13.7599L79.5551 18.4137H77.3102L73.7305 14.8705C72.6534 13.8088 70.9275 13.8088 69.8504 14.8705L66.2704 18.4137Z" fill="white"/>
<path d="M130.867 23C136.942 23 141.867 18.0751 141.867 12C141.867 5.92487 136.942 1 130.867 1C124.792 1 119.867 5.92487 119.867 12C119.867 18.0751 124.792 23 130.867 23Z" fill="#3C58C8"/>
<path d="M130.657 4.12939C131.03 3.93461 131.486 4.38631 131.288 4.75974C131.172 5.06386 130.735 5.14482 130.512 4.91299C130.276 4.69013 130.353 4.25038 130.657 4.12939ZM126.64 4.56227C126.867 4.46877 127.154 4.67669 127.13 4.92405C127.155 5.19262 126.826 5.39009 126.595 5.26252C126.289 5.14392 126.324 4.64652 126.64 4.56227ZM134.868 5.27029C134.513 5.22757 134.457 4.66982 134.798 4.55779C135.063 4.42873 135.306 4.67072 135.345 4.92166C135.289 5.13586 135.11 5.33213 134.868 5.27029ZM127.553 6.27227C127.933 6.03238 128.474 6.38968 128.416 6.83032C128.396 7.27515 127.805 7.53297 127.472 7.23213C127.15 6.99583 127.198 6.45391 127.553 6.27227ZM133.344 6.5268C133.513 6.09064 134.199 6.07749 134.392 6.50201C134.582 6.83242 134.348 7.24169 134.009 7.35402C133.56 7.43797 133.133 6.95221 133.344 6.5268ZM130.173 7.32922C130.17 6.9543 130.511 6.67498 130.867 6.64959C131.103 6.69709 131.361 6.79776 131.463 7.03616C131.651 7.36508 131.484 7.81797 131.142 7.96913C130.986 8.05667 130.801 8.0238 130.631 8.01364C130.372 7.88578 130.153 7.63543 130.173 7.32922ZM124.199 7.87533C124.545 7.66232 125.013 8.05099 124.882 8.4274C124.809 8.75303 124.372 8.88538 124.122 8.67775C123.854 8.48297 123.897 8.01484 124.199 7.87533ZM137.028 7.87473C137.322 7.64649 137.807 7.90819 137.772 8.27952C137.792 8.618 137.373 8.87313 137.081 8.69896C136.759 8.55437 136.726 8.05995 137.028 7.87473ZM131.853 8.54869C132.338 8.37452 132.915 8.58305 133.191 9.01563C133.556 9.5444 133.362 10.3498 132.796 10.653C132.209 11.0118 131.353 10.7077 131.136 10.0529C130.89 9.46643 131.249 8.73242 131.853 8.54869ZM129.007 8.60635C129.545 8.35242 130.268 8.56542 130.528 9.11541C130.834 9.65075 130.597 10.3964 130.051 10.6728C129.504 10.9834 128.732 10.748 128.467 10.1733C128.17 9.61729 128.434 8.86237 129.007 8.60635ZM126.157 9.58085C126.197 9.23431 126.524 9.00906 126.854 8.98576C127.209 9.02848 127.493 9.30451 127.532 9.6642C127.508 10.02 127.233 10.368 126.856 10.3659C126.441 10.4015 126.077 9.98863 126.157 9.58085ZM134.575 9.06104C135.001 8.81308 135.593 9.17396 135.574 9.6636C135.603 10.1822 134.948 10.5476 134.524 10.2435C134.083 9.98983 134.118 9.27673 134.575 9.06104ZM127.848 10.8887C128.347 10.7516 128.916 10.9864 129.161 11.4444C129.428 11.9054 129.319 12.5459 128.903 12.884C128.37 13.38 127.386 13.181 127.103 12.504C126.777 11.8836 127.173 11.0519 127.848 10.8887ZM133.248 10.8861C133.732 10.7474 134.301 10.9342 134.561 11.3754C134.906 11.88 134.741 12.6328 134.229 12.9581C133.692 13.3357 132.86 13.1377 132.565 12.5468C132.206 11.9358 132.567 11.0725 133.248 10.8861ZM124.643 11.462C125.074 11.2992 125.551 11.7742 125.377 12.2008C125.27 12.5895 124.722 12.7332 124.439 12.4467C124.108 12.1775 124.231 11.5785 124.643 11.462ZM136.31 12.0813C136.297 11.7246 136.558 11.4089 136.924 11.3891C137.219 11.4357 137.506 11.6735 137.482 11.9944C137.509 12.4183 136.999 12.7063 136.637 12.5073C136.468 12.421 136.381 12.2474 136.31 12.0813ZM122.527 11.6712C122.786 11.5582 123.106 11.7826 123.047 12.0703C123.034 12.3959 122.553 12.5211 122.376 12.2489C122.22 12.0601 122.314 11.7685 122.527 11.6712ZM138.854 11.6649C139.037 11.5349 139.329 11.6284 139.401 11.8414C139.524 12.0742 139.299 12.3929 139.037 12.3535C138.67 12.3866 138.551 11.8265 138.854 11.6649ZM129.255 13.2276C129.936 13.0504 130.669 13.6187 130.673 14.3201C130.717 15.029 129.996 15.6579 129.298 15.4942C128.759 15.4072 128.336 14.888 128.354 14.3431C128.352 13.8224 128.745 13.3378 129.255 13.2276ZM131.953 13.2264C132.645 13.0331 133.399 13.6115 133.388 14.3294C133.425 15.0251 132.726 15.6328 132.043 15.4948C131.4 15.4117 130.926 14.7055 131.106 14.082C131.196 13.6662 131.543 13.3283 131.953 13.2264ZM126.75 13.6581C127.229 13.5765 127.678 14.1104 127.484 14.5648C127.342 15.049 126.637 15.1805 126.326 14.7846C125.96 14.4049 126.233 13.7107 126.75 13.6581ZM134.664 13.6796C135.091 13.5009 135.615 13.8699 135.582 14.3332C135.599 14.8429 134.952 15.1945 134.535 14.897C134.062 14.6296 134.148 13.8433 134.664 13.6796ZM136.876 15.8981C136.709 15.5865 137.013 15.1739 137.358 15.2316C137.53 15.2286 137.651 15.3642 137.761 15.478C137.784 15.6627 137.822 15.8828 137.668 16.025C137.46 16.2882 136.989 16.2132 136.876 15.8981ZM124.197 15.3182C124.52 15.1031 124.986 15.424 124.913 15.8019C124.874 16.1362 124.453 16.3271 124.176 16.1374C123.878 15.9653 123.889 15.475 124.197 15.3182ZM130.582 16.0179C131.005 15.8311 131.545 16.1995 131.505 16.6655C131.536 17.1806 130.869 17.5373 130.455 17.2281C129.996 16.9622 130.073 16.181 130.582 16.0179ZM127.625 16.7077C127.985 16.5179 128.469 16.8454 128.436 17.249C128.447 17.5803 128.124 17.8623 127.797 17.8136C127.527 17.8076 127.35 17.565 127.263 17.3344C127.268 17.0826 127.371 16.8027 127.625 16.7077ZM133.616 16.7133C133.987 16.4842 134.513 16.8131 134.478 17.2445C134.488 17.6953 133.892 17.9842 133.547 17.6878C133.213 17.456 133.254 16.8979 133.616 16.7133ZM134.658 19.2891C134.493 19.0396 134.687 18.7391 134.955 18.6823C135.17 18.7263 135.397 18.8879 135.352 19.1376C135.321 19.4749 134.827 19.5786 134.658 19.2891ZM126.388 19.0722C126.454 18.8744 126.612 18.6782 126.845 18.7295C127.185 18.7537 127.285 19.2649 126.988 19.4226C126.721 19.6025 126.411 19.356 126.388 19.0722ZM130.378 19.2992C130.442 19.0068 130.821 18.8646 131.071 19.0199C131.235 19.0907 131.284 19.2753 131.326 19.4319C131.303 19.5134 131.283 19.5953 131.263 19.6769C131.161 19.7981 131.03 19.9191 130.86 19.9147C130.544 19.9517 130.259 19.5947 130.378 19.2992Z" fill="white"/>
<rect x="178.367" y="0.5" width="23" height="23" rx="11.5" stroke="white"/>
<path d="M197.642 19.7234C201.917 15.4484 201.917 8.51738 197.642 4.24243C193.367 -0.03251 186.436 -0.0325133 182.161 4.24243C177.886 8.51737 177.886 15.4484 182.161 19.7234C186.436 23.9983 193.367 23.9983 197.642 19.7234Z" fill="#C2A633"/>
<path d="M189.771 6.06196H186.368V11.3327H184.971V12.6239H186.369V17.8944H190.333C190.333 17.8944 195.908 18.3615 195.908 12.0772C195.907 5.89488 190.576 6.06196 189.771 6.06196ZM190.242 15.7072H188.601V12.6239H191.062V11.3327H188.601V8.24918H190.166C190.751 8.24918 193.694 8.48464 193.698 12.1197C193.703 15.7547 190.664 15.7072 190.242 15.7072Z" fill="white"/>
<g clip-path="url(#clip0_3937_1217)">
<path d="M248.867 23C254.942 23 259.867 18.0751 259.867 12C259.867 5.92487 254.942 1 248.867 1C242.792 1 237.867 5.92487 237.867 12C237.867 18.0751 242.792 23 248.867 23Z" fill="#3D8130"/>
<path d="M253.057 15.5836L253.052 15.5791L253.057 15.5836Z" fill="#3D8130"/>
<path d="M244.403 9.72246L243.909 10.685L243.397 11.6947L243.037 12.64L242.796 13.6455L242.646 14.7455L242.555 15.6951L242.452 16.3182L242.555 16.8037L242.731 17.2205L243.058 17.7963L243.814 18.2689L244.373 18.4881C244.51 18.5311 244.656 18.574 244.781 18.6127L245.443 18.733L246.388 18.776H247.17C247.26 18.776 248.051 18.733 248.055 18.7287L249.061 18.7459L250.032 18.6256L250.453 18.4494L250.741 18.1057L250.754 17.6502C250.737 17.6115 250.681 17.4654 250.663 17.4096C250.651 17.3709 250.457 17.1432 250.281 16.9455L250.277 16.9412C250.199 16.8295 250.075 16.6361 250.075 16.5717C250.075 16.5072 250.152 16.3182 250.169 16.2838L250.178 16.2666L250.582 16.1506L250.848 16.3439L251.089 16.2107L251.36 15.94L251.832 15.592L252.262 15.3471L252.601 15.2826L253.048 15.5877L253.018 15.5533L253.203 15.39L253.375 15.1064V14.81L253.34 14.724L253.121 14.9002L252.73 15.0119H252.722L252.12 14.999L251.248 15.0893L250.973 15.1193L250.762 15.0893L250.199 15.0119L249.563 14.8916L248.537 14.724H248.532L247.548 14.3158L246.685 13.8174L246.156 13.4607L246.104 13.2072L246.173 12.9709L246.384 12.8162L246.874 12.9279L247.944 13.2588C248.468 13.3662 249.267 13.5252 249.319 13.5295C249.344 13.5295 249.447 13.5467 249.705 13.5896C249.98 13.6326 250.358 13.6971 250.436 13.6971C250.569 13.6971 251.596 13.7529 251.656 13.7572C251.712 13.7572 252.546 13.74 252.636 13.74C252.696 13.74 253.018 13.6326 253.212 13.5639L253.504 13.2158L253.783 12.7303C253.8 12.5885 253.783 12.4467 253.731 12.3135C253.663 12.133 253.534 11.9783 253.371 11.8752C253.285 12.0385 253.173 12.1416 253.044 12.1889C252.997 12.2061 252.941 12.2146 252.889 12.2146C252.812 12.2146 252.735 12.1975 252.67 12.1631L252.713 12.0857C252.808 12.133 252.915 12.1416 253.018 12.1072C253.134 12.0643 253.233 11.9611 253.31 11.8021C253.216 11.8365 253.113 11.858 253.01 11.858C252.945 11.858 252.881 11.8537 252.816 11.8365L252.825 11.7936L252.833 11.7506C252.838 11.7506 253.169 11.8322 253.418 11.6389C253.594 11.5057 253.693 11.265 253.71 10.9342L253.422 11.2736L253.074 11.4326C252.919 11.4713 252.404 11.6002 252.356 11.6002C252.339 11.6002 252.271 11.5916 252.103 11.5615C251.892 11.5271 251.579 11.4799 251.497 11.4799C251.351 11.4799 251.145 11.3209 251.123 11.3037L251.097 11.2865L251.261 10.8096L251.712 10.2982L252.189 9.95879H252.782L253.34 10.0189L253.581 10.2939L253.697 10.4658V10.0018L253.233 9.83418C253.181 9.82559 252.722 9.76113 252.61 9.76113C252.503 9.76113 252.09 9.82559 252.021 9.83418L251.424 10.2209L251.377 10.1479L251.987 9.75254H251.996C252.017 9.74824 252.481 9.67519 252.606 9.67519C252.726 9.67519 253.224 9.74824 253.246 9.75254L253.254 9.75684L253.757 9.9416L253.804 9.96738L253.809 9.93301L253.572 9.72676L253.147 9.52051L252.631 9.47754L252.038 9.58066L251.802 9.68379L251.768 9.60215L252.017 9.49473L252.627 9.3873L253.169 9.43457L253.19 9.44746L253.027 9.19394L252.567 8.79004L252.571 8.78574L250.784 8.8373C250.784 8.8373 250.552 8.86738 250.285 8.90176L250.539 9.26699L250.668 9.49473L250.603 9.72246L250.517 9.69668L250.573 9.50332L250.462 9.30996L250.191 8.91895L250.208 8.90605C249.873 8.94902 249.516 8.99199 249.495 8.99199C249.456 8.99199 248.021 9.09941 247.961 9.09941C247.84 9.09082 247.72 9.07793 247.604 9.05215C247.583 9.03926 246.624 8.69121 246.59 8.66973C246.556 8.64824 246.221 8.32598 246.221 8.32598L245.567 8.12402L244.996 8.82871L244.403 9.72246ZM251.377 11.6947C251.463 11.7334 251.54 11.7807 251.622 11.8279L252.112 11.8838L252.391 11.8236L252.408 11.9096L252.116 11.9697L251.776 11.9311C251.922 12.0385 252.056 12.1588 252.176 12.2963C252.262 12.3951 252.339 12.5025 252.404 12.6143L252.326 12.6572C252.249 12.5283 252.159 12.4037 252.051 12.2963C251.91 12.1502 251.751 12.017 251.579 11.9096L251.329 11.7678L251.377 11.6947ZM246.465 10.0877L246.856 9.71387L247.196 9.43457L247.681 9.34004L248.193 9.32285H248.738L249.19 9.34004L250.105 9.35723L250.393 9.5334L250.745 9.85566L250.947 10.1049L251.042 10.6119L250.956 10.6291L250.865 10.1436L250.681 9.91152L250.341 9.60215L250.083 9.44316L249.366 9.43027L249.679 9.60215C249.847 9.68809 250.135 9.84277 250.165 9.90723C250.187 9.9416 250.414 10.165 250.625 10.3627L250.629 10.367L250.951 10.7838L250.999 11.1275L250.913 11.1404L250.87 10.8225L250.565 10.4271C250.457 10.3283 250.122 10.0104 250.092 9.9502C250.066 9.91582 249.843 9.78691 249.645 9.68379L249.185 9.43027L248.743 9.41738H248.201L247.694 9.43027L247.243 9.51621L246.921 9.77832L246.556 10.1307L246.517 10.3627L246.594 10.4314L246.788 10.3283L247.106 9.93301L247.681 9.71387L248.429 9.63652L249.061 9.69668L249.881 10.1221L250.221 10.324L250.547 10.758L250.698 11.2307L250.917 11.3725V11.5658L250.715 11.7506L250.354 11.901L250.199 12.0299L250.036 12.2963L249.954 12.4295L249.946 12.4338C249.838 12.4896 249.649 12.5885 249.598 12.5885C249.559 12.5971 249.319 12.7045 249.104 12.8119L249.082 12.8162C249.065 12.8205 248.687 12.9365 248.592 12.9537L248.579 12.8678C248.661 12.8549 249.018 12.7475 249.052 12.7346C249.267 12.6314 249.533 12.5068 249.581 12.5068C249.684 12.4682 249.783 12.4209 249.881 12.365L249.92 12.3006L250.118 11.9783L250.165 11.9396C250.028 11.9268 249.847 11.9053 249.8 11.8795C249.778 11.8709 249.649 11.8537 248.975 11.8537C248.807 11.8537 248.412 11.7635 248.356 11.7463C248.313 11.7334 247.909 11.6131 247.905 11.6131L247.896 11.6088L247.888 11.6002C247.883 11.5959 247.51 11.2393 247.235 11.0803L247.278 11.0029C247.544 11.1576 247.883 11.4756 247.944 11.5314C248.008 11.5486 248.343 11.6518 248.386 11.6646C248.433 11.6818 248.82 11.7678 248.975 11.7678C249.787 11.7678 249.821 11.7893 249.843 11.8064C249.873 11.8236 250.066 11.8451 250.229 11.858L250.225 11.8881L250.29 11.8322L250.651 11.6818L250.81 11.5357V11.4283L250.698 11.3553L250.702 11.3682L250.328 11.5057L249.813 11.5658C249.787 11.5658 249.675 11.5701 249.551 11.5701C249.404 11.5701 249.246 11.5658 249.198 11.5486C249.129 11.5271 248.696 11.4326 248.481 11.3854H248.476L248.472 11.3811C248.201 11.235 247.866 11.0502 247.84 11.0029C247.819 10.9771 247.651 10.8912 247.51 10.8225H247.505L247.028 10.5432L246.964 10.5561L246.955 10.5002L246.805 10.4143L246.573 10.5389L246.41 10.3971L246.465 10.0877ZM246.663 12.1459L246.685 12.2318L246.392 12.3006L246.246 12.335L246.238 12.3006L246.225 12.249L246.663 12.1459ZM246.848 12.5541L246.826 12.64C246.728 12.6186 246.624 12.6229 246.526 12.64C246.362 12.6701 246.122 12.7646 245.89 13.0311L245.825 12.9752C246.302 12.4166 246.826 12.5455 246.848 12.5541Z" fill="#3D8130"/>
<path d="M247.437 10.3802C247.462 10.3759 248.072 10.3028 248.15 10.3028C248.18 10.3028 248.266 10.3114 248.378 10.32C248.528 10.3329 248.781 10.3544 248.82 10.3501C248.88 10.3329 249.482 10.2813 249.551 10.2728L249.907 10.247L249.834 10.204L249.031 9.78721L248.425 9.72705L247.694 9.8001L247.153 10.0063L246.878 10.3501L247.054 10.4532L247.437 10.3802Z" fill="#3D8130"/>
<path d="M249.555 10.3627C249.288 10.3885 248.88 10.4271 248.837 10.4357C248.798 10.4443 248.661 10.4357 248.369 10.41C248.27 10.4014 248.175 10.3928 248.15 10.3928C248.089 10.3928 247.625 10.4486 247.449 10.4658L247.166 10.5174L247.552 10.7451C247.673 10.801 247.879 10.9041 247.913 10.9557C247.948 10.99 248.24 11.1576 248.51 11.3037C248.579 11.3166 249.146 11.4412 249.232 11.4713C249.292 11.4928 249.623 11.4885 249.817 11.4842L250.324 11.424L250.629 11.308L250.612 11.2994L250.457 10.8096L250.152 10.4014L249.971 10.2939L249.976 10.3369L249.555 10.3627Z" fill="#3D8130"/>
<path d="M253.525 10.3286L253.31 10.088L252.786 10.0278H252.227L251.776 10.3501L251.346 10.8356L251.209 11.2353C251.278 11.2868 251.415 11.3728 251.505 11.3728C251.596 11.3728 251.888 11.42 252.124 11.4587C252.236 11.4759 252.348 11.4931 252.365 11.4931C252.404 11.4888 252.807 11.3899 253.057 11.3298L253.375 11.1837L253.628 10.8915L253.607 10.754L252.825 10.436L251.823 10.406L251.828 10.32L252.846 10.3501L253.688 10.6938L253.723 10.913C253.723 10.9001 253.723 10.8872 253.723 10.8743V10.6337L253.525 10.3286Z" fill="#3D8130"/>
<path d="M252.588 15.3687L252.296 15.4245L251.884 15.6608L251.42 16.0046L251.291 16.1335L251.583 16.3397L251.604 16.503L251.407 16.7007L251.346 16.6405L251.514 16.4729L251.505 16.3913L251.23 16.198L251.149 16.2796L250.977 16.3741L250.93 16.6062L251.17 16.8167L251.518 16.8038C251.583 16.7565 251.69 16.6878 251.742 16.6835C251.793 16.6534 251.845 16.619 251.892 16.5804C252.008 16.4901 252.055 16.4601 252.09 16.4601C252.193 16.4085 252.292 16.3526 252.386 16.2882L252.399 16.2796L252.82 16.3269L252.966 16.4729L252.936 16.503C252.846 16.6019 252.743 16.7308 252.739 16.7608C252.739 16.7823 252.734 16.8038 252.726 16.821L252.825 16.7651L253.289 16.4343L253.34 16.5073L252.868 16.8425L252.648 16.9628C252.64 16.9757 252.631 16.9886 252.627 16.9929L252.61 16.98L252.275 17.1647L252.043 17.4999L251.961 17.6976L252.129 17.9339L252.313 18.1444L252.532 18.1702L252.734 18.1272L252.73 18.0843L252.954 17.7319L253.375 17.3237L253.435 17.3882L253.018 17.7921L252.816 18.1058L252.829 18.3421L253.044 18.4882L253.327 18.5183L253.486 18.471L253.456 18.4237L253.478 18.3979C253.486 18.3851 253.718 18.1229 253.766 18.08C253.8 18.0456 253.998 17.8179 254.096 17.7062L254.161 17.762C254.148 17.7749 253.873 18.0972 253.826 18.1401C253.791 18.1745 253.624 18.3593 253.564 18.428L253.714 18.6515H253.968L254.187 18.5526L254.367 18.2862L254.608 18.0284L254.672 18.0886L254.432 18.3421L254.247 18.6214L253.985 18.7374H253.667L253.534 18.5397L253.332 18.5999L253.009 18.5698L252.743 18.3851L252.734 18.2132L252.532 18.2562L252.266 18.2218L252.064 17.9897L251.763 17.8093L251.45 17.4612L251.372 16.9198L251.458 16.9069L251.523 17.371L251.896 17.0745L252.3 16.6878L252.532 16.3698L252.421 16.3569C252.296 16.4386 252.15 16.5288 252.098 16.5374C252.047 16.5675 251.995 16.6019 251.948 16.6405C251.828 16.7308 251.78 16.7608 251.75 16.7608C251.686 16.7909 251.621 16.8296 251.566 16.8726L251.553 16.8812L251.145 16.8983L250.839 16.6276L250.882 16.4214L250.852 16.4386L250.577 16.2409L250.255 16.3354C250.221 16.4128 250.195 16.4901 250.178 16.5718C250.182 16.6062 250.277 16.7651 250.362 16.8897C250.479 17.0187 250.745 17.3237 250.762 17.3882C250.775 17.4354 250.831 17.5729 250.852 17.6245L250.857 17.6331L250.844 18.2175L251.011 18.4667C251.097 18.5183 251.729 18.8878 251.802 18.9308C251.854 18.9608 252.309 19.0897 252.588 19.1671L253.529 19.2573L254.286 19.1542L254.934 18.8577L255.287 18.5183L255.205 18.2175L254.771 17.4097L254.457 16.9327L253.912 16.3397L253.108 15.8972L252.988 15.6394L252.588 15.3687Z" fill="#3D8130"/>
<path d="M253.271 13.6285L253.258 13.6328C253.173 13.6629 252.734 13.8176 252.64 13.8176C252.55 13.8176 251.669 13.8305 251.66 13.8348C251.647 13.8348 250.573 13.7746 250.44 13.7746C250.354 13.7746 250.006 13.7187 249.696 13.6672C249.525 13.6371 249.348 13.6113 249.323 13.6113C249.262 13.6113 248.15 13.3836 247.926 13.3406H247.922L246.852 13.0098L246.405 12.9109L246.25 13.027L246.199 13.2117L246.237 13.4094L246.736 13.7445L247.591 14.2387L248.562 14.6426L249.58 14.8059L250.216 14.9262L250.977 15.0293L252.12 14.909H252.124L252.721 14.9219L253.082 14.8188L253.387 14.5738L253.637 14.1914L253.692 14.0152L253.611 13.8176C253.25 14.1441 253.211 14.157 253.19 14.1613L252.82 14.2516L251.793 14.2988H251.789L250.715 14.2387L249.649 14.0453L248.79 14.0625H248.785L247.892 13.8348L247.101 13.5598L246.68 13.302L246.727 13.2289L247.144 13.4824L247.922 13.7531L248.803 13.9766L249.662 13.9594H249.666L250.732 14.1527L251.798 14.2129L252.816 14.1699L253.173 14.0797C253.194 14.0711 253.314 13.9766 253.568 13.7445C253.602 13.7145 253.624 13.693 253.632 13.6844L253.959 13.2375L254.071 13.027C254.053 12.9539 254.036 12.8852 254.028 12.8121C253.985 12.7434 253.937 12.6832 253.882 12.623C253.882 12.6617 253.882 12.7004 253.873 12.7391V12.7477L253.576 13.259L253.271 13.6285Z" fill="#983B1F"/>
<path d="M255.274 18.1875L254.836 17.3711L254.518 16.8855L253.968 16.2711L253.173 15.8371L253.057 15.5879L253.035 15.6008C253.035 15.6008 253.108 15.8672 253.16 15.893C253.211 15.9188 253.899 16.2711 253.933 16.2883C253.968 16.3055 254.565 17.0187 254.565 17.0187L255.046 17.8566L255.334 18.5012C255.334 18.5012 254.964 18.8793 254.943 18.8836C254.921 18.8879 254.208 19.2359 254.187 19.2359C254.165 19.2359 253.473 19.3133 253.435 19.3047C253.396 19.2918 252.545 19.2188 252.481 19.2145C252.412 19.2102 251.626 18.8965 251.626 18.8965L250.947 18.4883L250.754 18.1875L250.483 18.4926C250.483 18.4926 250.1 18.6859 250.049 18.6859C249.997 18.6859 249.061 18.8105 248.987 18.8105H247.101C247.101 18.8105 245.236 18.7762 245.155 18.7375C245.129 18.7246 244.979 18.6773 244.781 18.6129L244.622 18.5828L244.373 18.4883C244.068 18.3938 243.793 18.3121 243.793 18.3121L243.023 17.8137C243.023 17.8137 242.701 17.2551 242.688 17.225C242.675 17.1949 242.478 16.7266 242.478 16.7051C242.478 16.6836 242.409 16.3098 242.409 16.3098L242.546 15.4547L242.607 14.5566L242.753 13.577C242.753 13.577 242.998 12.593 243.002 12.55C243.006 12.5027 243.402 11.5316 243.402 11.5316L243.818 10.7797L244.368 9.64531L244.974 8.79023L245.563 8.08984L245.602 8.10273L245.533 8.04688L244.961 8.75586L244.325 9.67969L243.827 10.6508L243.316 11.6562L242.95 12.6102L242.705 13.6242L242.555 14.7328L242.465 15.6824L242.357 16.3227L242.465 16.8297L242.65 17.2594L242.989 17.8609L243.767 18.3508L244.587 18.673L245.425 18.8277L246.384 18.875H247.166C247.256 18.875 248.008 18.832 248.055 18.8277L249.065 18.8449H249.069L250.053 18.7246H250.057L250.509 18.5355L250.741 18.2563L250.934 18.5441L250.943 18.5484C250.951 18.5527 251.669 18.9695 251.742 19.0168C251.819 19.0641 252.477 19.2445 252.554 19.2617L253.516 19.352L254.29 19.2445H254.294L254.964 18.9395L254.973 18.9352L255.373 18.5484L255.274 18.1875Z" fill="black"/>
<path d="M244.974 8.79023L244.369 9.64531L243.819 10.7797L243.402 11.5316C243.402 11.5316 243.006 12.5027 243.002 12.55C242.998 12.5973 242.753 13.577 242.753 13.577L242.607 14.5566L242.547 15.4547L242.409 16.3098C242.409 16.3098 242.478 16.6836 242.478 16.7051C242.478 16.7266 242.676 17.1949 242.688 17.225C242.701 17.2551 243.024 17.8137 243.024 17.8137L243.793 18.3121C243.793 18.3121 244.068 18.3938 244.373 18.4883L243.814 18.2691L243.058 17.7965L242.731 17.2207L242.555 16.8039L242.452 16.3184L242.555 15.6953L242.646 14.7457L242.796 13.6457L243.037 12.6402L243.397 11.6949L243.909 10.6852L244.403 9.72266L245.035 8.80742L245.606 8.10273L245.567 8.08984L244.974 8.79023Z" fill="black"/>
<path d="M252.605 15.2783L252.266 15.3428L251.836 15.5877L251.364 15.9357L251.093 16.2064L250.852 16.3396L250.586 16.1463L250.182 16.2623L250.173 16.2795C250.156 16.3182 250.079 16.5029 250.079 16.5674C250.079 16.6318 250.208 16.8295 250.281 16.9369L250.285 16.9412C250.461 17.1389 250.655 17.3666 250.668 17.4053C250.68 17.4611 250.741 17.6072 250.758 17.6459L250.745 18.1014L250.457 18.4451L250.036 18.6213L249.065 18.7416L248.059 18.7244C248.051 18.7244 247.26 18.7717 247.174 18.7717H246.392L245.447 18.7287L244.785 18.6084C244.979 18.6686 245.133 18.7201 245.159 18.733C245.236 18.7717 247.105 18.8061 247.105 18.8061H248.992C249.065 18.8061 250.006 18.6814 250.053 18.6814C250.105 18.6814 250.487 18.4881 250.487 18.4881L250.758 18.183L250.951 18.4838L251.63 18.892C251.63 18.892 252.416 19.2014 252.485 19.21C252.554 19.2143 253.4 19.2873 253.439 19.3002C253.478 19.3131 254.17 19.2314 254.191 19.2314C254.212 19.2314 254.926 18.8877 254.947 18.8791C254.969 18.8748 255.338 18.4967 255.338 18.4967L255.05 17.8521L254.569 17.0143C254.569 17.0143 253.972 16.301 253.938 16.2838C253.903 16.2666 253.216 15.9143 253.164 15.8885C253.113 15.8627 253.039 15.5963 253.039 15.5963L253.061 15.5834V15.5791L252.605 15.2783ZM253.104 15.8971L253.907 16.3396L254.445 16.9326L254.758 17.4096L255.192 18.2174L255.274 18.5182L254.921 18.8576L254.273 19.1541L253.516 19.2572L252.575 19.167C252.296 19.0896 251.841 18.9607 251.789 18.9307C251.716 18.8877 251.084 18.5182 250.998 18.4666L250.831 18.2174L250.844 17.633V17.6287C250.822 17.5771 250.766 17.4396 250.754 17.3924C250.736 17.3279 250.47 17.0229 250.354 16.8939C250.268 16.765 250.169 16.6061 250.169 16.576C250.186 16.4943 250.212 16.417 250.246 16.3396L250.569 16.2451L250.844 16.4428L250.874 16.4256L250.831 16.6318L251.136 16.9025L251.544 16.8854L251.557 16.8768C251.613 16.8338 251.677 16.7951 251.742 16.765C251.776 16.765 251.819 16.735 251.939 16.6447C251.987 16.6061 252.038 16.5717 252.09 16.5416C252.141 16.5373 252.292 16.4428 252.412 16.3611L252.524 16.374L252.292 16.692L251.888 17.0787L251.514 17.3752L251.45 16.9111L251.364 16.924L251.441 17.4654L251.755 17.8135L252.055 17.9939L252.257 18.226L252.524 18.2604L252.726 18.2174L252.734 18.3893L253.001 18.574L253.323 18.6041L253.525 18.5439L253.658 18.7416H253.976L254.238 18.6256L254.423 18.3463L254.664 18.0928L254.599 18.0326L254.359 18.2904L254.178 18.5568L253.959 18.6557H253.705L253.555 18.4322C253.615 18.3635 253.783 18.1787 253.817 18.1443C253.864 18.0971 254.139 17.7791 254.152 17.7662L254.088 17.7104C253.989 17.8264 253.791 18.0498 253.757 18.0842C253.71 18.1314 253.478 18.3936 253.469 18.4021L253.448 18.4279L253.478 18.4752L253.319 18.5225L253.035 18.4924L252.82 18.3463L252.807 18.11L253.009 17.7963L253.426 17.3924L253.366 17.3279L252.945 17.7361L252.721 18.0885L252.726 18.1314L252.524 18.1744L252.305 18.1486L252.12 17.9381L251.952 17.7018L252.034 17.5041L252.266 17.1689L252.601 16.9842L252.618 16.9971C252.623 16.9885 252.631 16.9799 252.64 16.967L252.859 16.8467L253.332 16.5115L253.28 16.4385L252.816 16.7693L252.717 16.8252C252.726 16.808 252.73 16.7865 252.73 16.765C252.734 16.7307 252.837 16.6061 252.928 16.5072L252.958 16.4771L252.812 16.3311L252.391 16.2838L252.378 16.2924C252.283 16.3568 252.184 16.417 252.081 16.4643C252.047 16.4643 252 16.4986 251.884 16.5846C251.836 16.6232 251.785 16.6576 251.733 16.6877C251.682 16.692 251.579 16.7607 251.51 16.808L251.162 16.8209L250.921 16.6104L250.968 16.3783L251.14 16.2838L251.222 16.2021L251.497 16.3955L251.505 16.4771L251.338 16.6447L251.398 16.7049L251.596 16.5072L251.574 16.3439L251.282 16.1377L251.411 16.0088L251.875 15.665L252.288 15.4287L252.58 15.3729L252.975 15.6436L253.104 15.8971ZM251.927 17.8178L251.811 17.749L251.553 17.4654L251.948 17.1561L252.356 16.7607L252.623 16.3912L252.773 16.4084L252.837 16.4729C252.756 16.5631 252.644 16.6963 252.644 16.7564C252.631 16.808 252.605 16.8553 252.575 16.8939L252.202 17.1002L251.952 17.4568L251.849 17.7146L251.927 17.8178Z" fill="black"/>
<path d="M252.979 9.06104L253.198 9.34893C253.198 9.34893 253.306 9.5165 253.344 9.52939C253.383 9.54228 253.74 9.74854 253.74 9.74854L253.886 9.91182L253.856 10.0063L253.744 9.97197L253.761 10.5263H253.796V10.0278L253.894 10.0837L253.92 9.87314L253.641 9.62822L253.34 9.48213L253.353 9.47353L253.121 9.1083L252.653 8.6958L252.601 8.75596H252.648L252.979 9.06104Z" fill="black"/>
<path d="M253.71 11.3252C253.71 11.3252 253.551 11.6432 253.533 11.6518C253.516 11.6646 253.375 11.7248 253.375 11.7248L253.387 11.8021C253.452 11.8494 253.516 11.901 253.572 11.9568C253.581 11.9697 253.675 12.1588 253.753 12.3006H253.83C253.757 12.0857 253.611 11.901 253.417 11.785C253.426 11.7678 253.435 11.7463 253.443 11.7291C253.456 11.7205 253.473 11.7119 253.486 11.699C253.697 11.54 253.804 11.265 253.817 10.8783V10.6076L253.766 10.5303L253.778 10.9471L253.71 11.3252Z" fill="black"/>
<path d="M253.057 9.17246L253.22 9.42598L253.199 9.41309L252.657 9.36582L252.047 9.47324L251.798 9.58066L251.832 9.6623L252.068 9.55918L252.661 9.45605L253.177 9.49902L253.602 9.70527L253.839 9.91152L253.834 9.9459L253.787 9.92012L253.284 9.73535L253.276 9.73105C253.254 9.72676 252.76 9.65371 252.636 9.65371C252.511 9.65371 252.047 9.72676 252.025 9.73105H252.017L251.407 10.1264L251.454 10.1994L252.051 9.8127C252.12 9.8041 252.533 9.73965 252.64 9.73965C252.752 9.73965 253.211 9.8084 253.263 9.8127L253.727 9.98027V10.4529L253.611 10.2811L253.37 10.0061L252.812 9.9459H252.219L251.742 10.2854L251.291 10.7967L251.127 11.2736L251.153 11.2908C251.175 11.308 251.381 11.467 251.527 11.467C251.609 11.467 251.927 11.5186 252.133 11.5486C252.3 11.5744 252.369 11.5873 252.386 11.5873C252.434 11.5873 252.949 11.4584 253.104 11.4197L253.452 11.2607L253.74 10.9213C253.723 11.2521 253.624 11.4928 253.448 11.626C253.194 11.8193 252.863 11.7377 252.863 11.7377L252.855 11.7807L252.846 11.8236C252.911 11.8365 252.975 11.8451 253.04 11.8451C253.143 11.8451 253.246 11.8279 253.34 11.7893C253.263 11.9482 253.164 12.0514 253.048 12.0943C252.949 12.1287 252.838 12.1201 252.743 12.0729L252.7 12.1502C252.769 12.1846 252.846 12.2018 252.919 12.2018C252.971 12.2018 253.022 12.1932 253.074 12.176C253.203 12.1287 253.31 12.0256 253.4 11.8623C253.564 11.9654 253.693 12.1201 253.761 12.3006H253.774C253.701 12.1588 253.602 11.9697 253.594 11.9568C253.534 11.901 253.474 11.8494 253.409 11.8021L253.396 11.7248C253.396 11.7248 253.538 11.6646 253.555 11.6518C253.572 11.6389 253.731 11.3252 253.731 11.3252L253.8 10.9514L253.787 10.5346L253.77 9.98027L253.882 10.0146L253.912 9.92012L253.766 9.75684C253.766 9.75684 253.409 9.54629 253.37 9.5377C253.332 9.5248 253.224 9.35723 253.224 9.35723L253.005 9.06934L252.67 8.76855H252.623L252.618 8.77285L253.057 9.17246ZM253.727 10.9127L253.693 10.6936L252.85 10.3498L251.832 10.3197L251.828 10.4057L252.829 10.4357L253.611 10.7537L253.633 10.8912L253.379 11.1834L253.061 11.3295C252.812 11.3896 252.408 11.4885 252.369 11.4928C252.352 11.4928 252.24 11.4756 252.129 11.4584C251.892 11.4197 251.6 11.3725 251.51 11.3725C251.424 11.3725 251.286 11.2865 251.213 11.235L251.351 10.8354L251.781 10.3498L252.232 10.0275H252.79L253.315 10.0877L253.529 10.3283L253.731 10.6334V10.874C253.727 10.8869 253.727 10.8998 253.727 10.9127Z" fill="black"/>
<path d="M250.981 15.1111L251.256 15.0811H250.771L250.981 15.1111Z" fill="black"/>
<path d="M253.426 15.0982C253.413 15.1197 253.164 15.5236 253.164 15.5236L253.052 15.5838L253.078 15.6139L253.276 15.442L253.465 15.124V15.0811H253.426C253.43 15.0896 253.43 15.0939 253.426 15.0982Z" fill="black"/>
<path d="M253.426 15.0982C253.426 15.0939 253.43 15.0854 253.43 15.0811H253.383V15.0982L253.211 15.3818L253.026 15.5451L253.056 15.5795L253.061 15.5838L253.172 15.5236C253.168 15.5236 253.417 15.124 253.426 15.0982Z" fill="black"/>
<path d="M253.839 12.4641L253.878 12.5199C253.869 12.4469 253.856 12.3738 253.83 12.3008H253.753C253.8 12.391 253.839 12.4641 253.839 12.4641Z" fill="black"/>
<path d="M254.118 12.9455C254.114 12.967 254.062 13.1389 254.049 13.1646C254.036 13.1947 253.633 13.749 253.633 13.749L253.727 13.9424C253.727 13.9424 253.744 14.0799 253.731 14.1014C253.718 14.1229 253.362 14.6771 253.362 14.6771L253.418 14.8318C253.418 14.8318 253.431 15.0252 253.426 15.0854H253.465V14.7889L253.418 14.66L253.456 14.6299L253.718 14.226L253.787 14.0068L253.684 13.7533C253.693 13.7447 253.697 13.7404 253.697 13.7404L254.032 13.2807L254.165 13.0357L254.161 13.0186C254.144 12.9498 254.127 12.8768 254.118 12.8037C254.118 12.7865 254.118 12.7393 253.895 12.5029L253.877 12.5201L254.011 12.7092C254.011 12.7092 254.122 12.924 254.118 12.9455Z" fill="black"/>
<path d="M253.753 12.3008H253.74C253.791 12.434 253.808 12.5758 253.791 12.7176L253.508 13.2031L253.215 13.5512C253.018 13.6199 252.696 13.7273 252.64 13.7273C252.549 13.7273 251.716 13.7402 251.66 13.7445C251.596 13.7402 250.573 13.6844 250.44 13.6844C250.362 13.6844 249.984 13.6242 249.709 13.577C249.456 13.534 249.348 13.5168 249.322 13.5168C249.267 13.5125 248.472 13.3535 247.947 13.2461L246.878 12.9152L246.388 12.8035L246.177 12.9582L246.108 13.1945L246.16 13.448L246.688 13.8047L247.552 14.3031L248.536 14.7113H248.54L249.567 14.8789L250.203 14.9992L250.766 15.0766H251.256L252.128 14.9863L252.73 14.9992H252.738L253.129 14.8875L253.349 14.7113L253.383 14.7973V15.0766H253.43C253.435 15.0164 253.422 14.823 253.422 14.823L253.366 14.6684C253.366 14.6684 253.722 14.1141 253.735 14.0926C253.748 14.0711 253.731 13.9336 253.731 13.9336L253.637 13.7402C253.637 13.7402 254.045 13.1859 254.053 13.1559C254.066 13.1258 254.113 12.9582 254.122 12.9367C254.126 12.9152 254.015 12.7004 254.015 12.7004L253.881 12.5113L253.843 12.4555C253.838 12.4641 253.8 12.391 253.753 12.3008ZM253.877 12.7391C253.881 12.7004 253.886 12.6617 253.886 12.623C253.942 12.6789 253.989 12.7434 254.032 12.8121C254.04 12.8852 254.053 12.9582 254.075 13.027L253.963 13.2375L253.637 13.6844C253.628 13.693 253.602 13.7145 253.572 13.7445C253.319 13.9766 253.203 14.0668 253.177 14.0797L252.82 14.1699L251.802 14.2129L250.736 14.1527L249.671 13.9594H249.666L248.807 13.9766L247.926 13.7531L247.148 13.4824L246.731 13.2289L246.684 13.302L247.105 13.5598L247.896 13.8348L248.79 14.0625H248.794L249.653 14.0453L250.719 14.2387L251.793 14.2988H251.797L252.824 14.2516L253.194 14.1613C253.211 14.157 253.254 14.1441 253.615 13.8176L253.697 14.0152L253.641 14.1914L253.392 14.5738L253.087 14.8188L252.726 14.9219L252.128 14.909H252.124L250.981 15.0293L250.221 14.9262L249.585 14.8059L248.566 14.6426L247.595 14.2387L246.74 13.7445L246.242 13.4094L246.203 13.2117L246.254 13.027L246.409 12.9109L246.856 13.0098L247.926 13.3406H247.93C248.154 13.3879 249.262 13.6113 249.327 13.6113C249.348 13.6113 249.529 13.6414 249.701 13.6672C250.01 13.7187 250.358 13.7746 250.444 13.7746C250.577 13.7746 251.651 13.8348 251.664 13.8348C251.673 13.8348 252.554 13.8176 252.644 13.8176C252.738 13.8176 253.177 13.6629 253.263 13.6328L253.276 13.6285L253.585 13.259L253.881 12.7477L253.877 12.7391Z" fill="black"/>
<path d="M246.526 12.6404C246.624 12.6189 246.728 12.6189 246.826 12.6404L246.848 12.5545C246.826 12.5502 246.302 12.417 245.825 12.9756L245.89 13.0314C246.122 12.7607 246.362 12.6705 246.526 12.6404Z" fill="black"/>
<path d="M246.388 12.3007L246.68 12.2319L246.663 12.146L246.225 12.2491L246.238 12.3007H246.388Z" fill="black"/>
<path d="M246.246 12.3352L246.388 12.3008H246.237L246.246 12.3352Z" fill="black"/>
<path d="M251.587 11.9141C251.759 12.0258 251.918 12.1547 252.06 12.3008H252.18C252.06 12.1633 251.927 12.043 251.781 11.9355L252.12 11.9742L252.412 11.9141L252.395 11.8281L252.116 11.8883L251.626 11.8324C251.549 11.7809 251.467 11.7379 251.381 11.6992L251.342 11.7766L251.587 11.9141Z" fill="black"/>
<path d="M252.33 12.6617L252.408 12.6187C252.343 12.507 252.266 12.3996 252.18 12.3008H252.06C252.163 12.4125 252.253 12.5328 252.33 12.6617Z" fill="black"/>
<path d="M246.805 10.4143L246.955 10.5002L246.964 10.5561L247.028 10.5432L247.505 10.8225H247.509C247.651 10.8912 247.819 10.9771 247.84 11.0029C247.87 11.0459 248.201 11.2307 248.472 11.3811L248.476 11.3854H248.481C248.7 11.4326 249.129 11.5271 249.198 11.5486C249.25 11.5658 249.409 11.5701 249.55 11.5701C249.675 11.5701 249.791 11.5658 249.813 11.5658L250.328 11.5057L250.702 11.3682L250.698 11.3553L250.809 11.4283V11.5357L250.65 11.6818L250.29 11.8322L250.225 11.8881L250.229 11.858C250.066 11.8451 249.873 11.8193 249.843 11.8064C249.821 11.7936 249.787 11.7678 248.975 11.7678C248.82 11.7678 248.433 11.6818 248.386 11.6646C248.343 11.6518 248.008 11.5486 247.943 11.5314C247.888 11.4756 247.548 11.1619 247.277 11.0029L247.234 11.0803C247.514 11.2436 247.888 11.5959 247.888 11.6002L247.896 11.6088L247.905 11.6131C247.909 11.6131 248.313 11.7334 248.356 11.7463C248.408 11.7635 248.803 11.8537 248.975 11.8537C249.649 11.8537 249.774 11.8709 249.8 11.8795C249.847 11.9053 250.027 11.9268 250.165 11.9396L250.118 11.9783L249.92 12.3006H250.023L250.186 12.0342L250.341 11.9053L250.702 11.7549L250.904 11.5701V11.3768L250.685 11.235L250.534 10.7623L250.208 10.3283L249.868 10.1264L249.048 9.70098L248.416 9.64082L247.668 9.71816L247.093 9.9373L246.775 10.3326L246.581 10.4357L246.504 10.367L246.543 10.135L246.908 9.78262L247.23 9.52051L247.681 9.43457L248.188 9.42168H248.73L249.172 9.43457L249.632 9.68809C249.83 9.79121 250.058 9.92012 250.079 9.95449C250.109 10.0146 250.444 10.3326 250.552 10.4314L250.857 10.8268L250.9 11.1447L250.986 11.1318L250.938 10.7881L250.616 10.3713L250.612 10.367C250.401 10.1736 250.174 9.95019 250.152 9.91152C250.122 9.84707 249.834 9.69238 249.667 9.60645L249.353 9.43457L250.07 9.44746L250.328 9.60645L250.668 9.91582L250.852 10.1479L250.943 10.6334L251.029 10.6162L250.934 10.1092L250.732 9.85996L250.38 9.5377L250.092 9.36152L249.177 9.34434L248.725 9.32715H248.18L247.668 9.34434L247.183 9.43887L246.843 9.71816L246.452 10.092L246.401 10.4014L246.564 10.5432L246.805 10.4143ZM250.156 10.3971L250.461 10.8053L250.616 11.2951L250.633 11.3037L250.328 11.4197L249.821 11.4799C249.628 11.4842 249.297 11.4885 249.237 11.467C249.151 11.4369 248.584 11.3166 248.515 11.2994C248.244 11.1533 247.948 10.9857 247.918 10.9514C247.883 10.9041 247.677 10.801 247.557 10.7408L247.17 10.5131L247.454 10.4615C247.63 10.44 248.094 10.3885 248.154 10.3885C248.18 10.3885 248.274 10.3971 248.373 10.4057C248.665 10.4314 248.803 10.44 248.842 10.4314C248.884 10.4229 249.293 10.3799 249.559 10.3584L249.98 10.3283L249.976 10.2854L250.156 10.3971ZM247.149 10.0104L247.69 9.8041L248.42 9.73105L249.026 9.79121L249.83 10.208L249.903 10.251L249.546 10.2768C249.477 10.2811 248.876 10.3369 248.816 10.3541C248.777 10.3627 248.528 10.3369 248.373 10.324C248.261 10.3154 248.175 10.3068 248.145 10.3068C248.068 10.3068 247.458 10.3799 247.432 10.3842L247.045 10.4572L246.869 10.3541L247.149 10.0104Z" fill="black"/>
<path d="M249.881 12.3651C249.782 12.421 249.683 12.464 249.58 12.5069C249.533 12.5069 249.267 12.6315 249.052 12.7347C249.013 12.7476 248.661 12.855 248.579 12.8679L248.592 12.9538C248.682 12.9366 249.065 12.8206 249.082 12.8163L249.086 12.812C249.301 12.7089 249.546 12.5972 249.58 12.5886C249.632 12.5843 249.821 12.4897 249.928 12.4339L249.937 12.4296L250.019 12.2964H249.915L249.881 12.3651Z" fill="black"/>
<path d="M250.294 8.84619L250.238 8.88486C250.264 8.88057 250.289 8.88057 250.315 8.87627L250.294 8.84619Z" fill="black"/>
<path d="M250.496 9.28857L250.608 9.48193L250.552 9.67529L250.638 9.70107L250.702 9.47334L250.573 9.24561L250.32 8.88037C250.294 8.88467 250.268 8.88467 250.242 8.88897L250.225 8.90186L250.496 9.28857Z" fill="black"/>
<path d="M253.125 9.18535L253.508 9.14668C253.508 9.14668 254.462 9.43027 254.5 9.46895C254.539 9.50762 255.02 9.71816 255.02 9.71816L255.304 9.74395L255.342 9.48613L255.132 9.18535L254.526 8.73848L253.834 8.40332L253.4 8.25293L253.246 6.06152L252.88 5.51582L252.335 5.06895L251.63 4.7209L250.9 4.70801L249.525 4.87988L248.261 5.1291L248.188 4.91426C248.089 4.88848 247.991 4.87129 247.892 4.8584C247.819 4.8584 247.148 5.06465 247.148 5.06465L246.74 5.27949L246.654 5.52871L246.07 5.85098L245.597 6.44395L245.326 7.01543C245.326 7.01543 245.189 7.58691 245.189 7.62129C245.189 7.65566 245.262 7.96934 245.314 7.99082C245.365 8.0123 245.748 8.11543 245.748 8.11543L246.25 8.36465L246.976 8.78574L247.879 9.08223C247.879 9.08223 248.734 9.02207 248.82 9.02207C248.906 9.02207 250.195 8.88457 250.268 8.88457C250.341 8.88457 251.755 8.77285 251.793 8.77285C251.832 8.77285 252.674 8.75996 252.674 8.75996L253.009 9.05645L253.125 9.18535Z" fill="#C82727"/>
<path d="M252.79 10.4018L252.902 10.6381L252.971 10.9088L252.936 11.0807L252.79 11.4545L252.326 11.5318L251.579 11.3986L251.488 11.1365L251.523 10.9002L251.6 10.5264L251.793 10.3115L251.918 10.3803L252.743 10.4018" fill="black"/>
<path d="M249.387 10.3674L249.525 10.6295L249.538 10.9475L249.469 11.2311L249.323 11.4588L249.086 11.4717L248.18 11.201L247.819 10.883L247.866 10.6811L247.991 10.4877L248.158 10.3545L248.794 10.3717C248.786 10.3674 249.361 10.4146 249.387 10.3674Z" fill="black"/>
<path d="M255.226 9.21992L254.874 8.91055L254.367 8.57109L253.533 8.26602L253.417 8.21875L253.383 7.50117C253.34 7.14883 253.28 6.61602 253.28 6.57305C253.28 6.51289 253.25 6.07461 253.25 6.05742V6.04883L253.001 5.59766L252.584 5.16797L251.944 4.80273L251.411 4.65234H250.68L249.963 4.74258C249.675 4.78984 249.224 4.86289 249.172 4.86289C249.095 4.86289 248.493 5.00039 248.425 5.01328L248.214 5.06914L248.248 5.05195L248.18 4.91445L247.956 4.82852L247.63 4.85859L247.105 4.9875L246.71 5.24102L246.628 5.45156L246.684 5.47305L246.465 5.52891H246.457L245.992 5.82109L245.67 6.18633L245.378 6.67617L245.146 7.47539V7.76328L245.296 8.02969L246.237 8.36484L246.551 8.64844L247.251 8.96641L247.87 9.12109L249.026 9.04375L250.698 8.86328L251.888 8.77305L252.876 8.78594L253.92 8.93633L254.745 9.32734L254.784 9.25L253.95 8.85469L252.889 8.7043L251.888 8.68711L250.693 8.77734L249.022 8.95781L247.883 9.03086L247.29 8.88477L246.607 8.57109L246.289 8.2832L245.361 7.95234L245.241 7.7375V7.48398L245.464 6.71055L245.748 6.23789L246.057 5.88555L246.5 5.60625L248.45 5.09492C248.704 5.03906 249.129 4.94453 249.181 4.94453C249.258 4.94453 249.911 4.83711 249.984 4.82422L250.689 4.73398H251.402L251.905 4.88008L252.528 5.23672L252.928 5.64922L253.16 6.07461C253.168 6.23359 253.19 6.53008 253.19 6.57305C253.19 6.6332 253.284 7.42383 253.297 7.50977L253.332 8.18437L252.825 7.99102L251.823 7.88359L251.067 7.80625L250.324 7.86641L249.464 7.95664L248.463 8.18437L247.711 8.36484L247.208 8.39492L246.564 8.26602L246.891 8.50234L247.157 8.65703L247.767 8.80742L248.364 8.82461H248.369L248.901 8.76445L249.653 8.64414L250.388 8.52383L251.213 8.46367L251.785 8.43359L252.472 8.47656L253.405 8.59688L254.608 8.82461L254.818 8.96211L255.153 9.2543L255.248 9.47344L255.226 9.63672L255.046 9.64961L254.694 9.48633L254.045 9.22852L253.533 9.07383L253.087 9.12109L253.095 9.20703L253.525 9.16406L254.01 9.31016L254.655 9.56367L255.029 9.73555L255.3 9.71836L255.338 9.46055L255.226 9.21992ZM246.719 5.46016L246.783 5.29688L247.14 5.06914L247.642 4.94883L247.948 4.91875L248.119 4.9832L248.167 5.07773L246.719 5.46016ZM253.417 8.52812L252.476 8.40781L251.78 8.36055L251.205 8.39062L250.375 8.45078L249.632 8.57109L248.88 8.69141L248.356 8.75156L247.776 8.73867L247.183 8.59258L246.933 8.44648H246.929L247.191 8.49805L247.711 8.46797L248.472 8.2875L249.464 8.06406L250.319 7.97383L251.054 7.91367L251.802 7.98672L252.79 8.08984L253.495 8.36055L254.32 8.66133L254.414 8.72578L253.417 8.52812Z" fill="black"/>
<path d="M249.104 11.0796C249.247 11.037 249.334 10.9047 249.298 10.7841C249.262 10.6636 249.117 10.6004 248.974 10.643C248.831 10.6857 248.743 10.8179 248.779 10.9385C248.815 11.0591 248.96 11.1222 249.104 11.0796Z" fill="white"/>
<path d="M248.403 11.0545C248.465 11.0545 248.515 11.0045 248.515 10.9428C248.515 10.8811 248.465 10.8311 248.403 10.8311C248.342 10.8311 248.292 10.8811 248.292 10.9428C248.292 11.0045 248.342 11.0545 248.403 11.0545Z" fill="white"/>
<path d="M248.334 10.7068C248.396 10.7068 248.446 10.6568 248.446 10.5951C248.446 10.5334 248.396 10.4834 248.334 10.4834C248.273 10.4834 248.223 10.5334 248.223 10.5951C248.223 10.6568 248.273 10.7068 248.334 10.7068Z" fill="white"/>
<path d="M251.974 11.1965C252.031 11.1965 252.077 11.1503 252.077 11.0934C252.077 11.0364 252.031 10.9902 251.974 10.9902C251.917 10.9902 251.871 11.0364 251.871 11.0934C251.871 11.1503 251.917 11.1965 251.974 11.1965Z" fill="white"/>
<path d="M251.961 10.8055C252.023 10.8055 252.073 10.7555 252.073 10.6938C252.073 10.632 252.023 10.582 251.961 10.582C251.899 10.582 251.849 10.632 251.849 10.6938C251.849 10.7555 251.899 10.8055 251.961 10.8055Z" fill="white"/>
<path d="M252.575 11.1236C252.687 11.1236 252.777 11.0332 252.777 10.9217C252.777 10.8101 252.687 10.7197 252.575 10.7197C252.464 10.7197 252.374 10.8101 252.374 10.9217C252.374 11.0332 252.464 11.1236 252.575 11.1236Z" fill="white"/>
</g>
<rect x="238.367" y="1.5" width="21" height="21" rx="10.5" stroke="white"/>
<defs>
<clipPath id="clip0_3937_1217">
<rect x="237.867" y="1" width="22" height="22" rx="11" fill="white"/>
</clipPath>
</defs>
</svg>
